# xmcd CD database file
#
# Track frame offsets:
#	150
#	26077
#	36725
#	79553
#	95050
#	113895
#	126230
#	148293
#	159440
#	179273
#	192924
#	214011
#
# Disc length: 3040 seconds
#
# Revision: 5
# Processed by: cddbd v1.5.1PL0 Copyright (c) Steve Scherf et al.
# Submitted via: CDex 1.51
#
DISCID=af0bde0c
DTITLE=Nighthawks - Times Four
DYEAR=1981
DGENRE=Blues
TTITLE0=Come On (Let The Good Times Roll)
TTITLE1=Off The Wall
TTITLE2=Double Trouble
TTITLE3=Let A Woman Be A Woman
TTITLE4=All Your Fault
TTITLE5=What A Girl Can't Do
TTITLE6=You've Got To Move
TTITLE7=Claudette
TTITLE8=Mystery Train
TTITLE9=Back Seat Boogie
TTITLE10=How Many More Years
TTITLE11=Mind Your Own Business
EXTD=YEAR: 1981
EXTT0=
EXTT1=
EXTT2=
EXTT3=
EXTT4=
EXTT5=
EXTT6=
EXTT7=
EXTT8=
EXTT9=
EXTT10=
EXTT11=
PLAYORDER=
